<svg xmlns="http://www.w3.org/2000/svg" width="155" height="56" viewBox="0 0 155 56" fill="none"><path d="M10.0047 20L3.60123 3.9018H3.5416C3.5575 4.19594 3.56943 4.50598 3.57738 4.83192C3.59328 5.14991 3.6052 5.4838 3.61315 5.83359C3.6211 6.18337 3.62508 6.54906 3.62508 6.93065V20H2.45647V2.56625H4.3167L10.4936 18.0921H10.5652L16.7898 2.56625H18.6024V20H17.398V6.78755C17.398 6.47751 17.402 6.15952 17.4099 5.83359C17.4179 5.50765 17.4258 5.18568 17.4338 4.86769C17.4497 4.54176 17.4656 4.22774 17.4815 3.92565H17.4099L10.9825 20H10.0047ZM36.3819 2.56625V13.8469C36.3819 15.2063 36.1196 16.363 35.5949 17.317C35.0702 18.263 34.315 18.9864 33.3292 19.4872C32.3514 19.9881 31.1788 20.2385 29.8115 20.2385C27.7366 20.2385 26.1427 19.678 25.0297 18.5571C23.9168 17.4283 23.3603 15.8423 23.3603 13.7992V2.56625H24.5766V13.7992C24.5766 15.5482 25.0297 16.8797 25.936 17.794C26.8502 18.7002 28.1619 19.1534 29.8711 19.1534C30.992 19.1534 31.946 18.9546 32.733 18.5571C33.52 18.1517 34.1202 17.5634 34.5336 16.7923C34.947 16.0132 35.1537 15.0712 35.1537 13.9662V2.56625H36.3819ZM41.116 20V2.56625H42.3442V18.8791H50.6437V20H41.116ZM58.192 20H56.9518V3.67524H51.2996V2.56625H63.8443V3.67524H58.192V20ZM66.4438 20V2.56625H67.6721V20H66.4438ZM73.8251 20H72.5969V2.56625H82.1366V3.67524H73.8251V11.1043H81.6834V12.2013H73.8251V20ZM95.7902 20L93.4172 13.835H86.0955L83.6749 20H82.4228L89.2794 2.50663H90.4003L97.0781 20H95.7902ZM93.0237 12.726L90.615 6.19132C90.5514 6.02438 90.4719 5.80974 90.3765 5.5474C90.289 5.28505 90.1936 5.00681 90.0903 4.71267C89.9949 4.41853 89.8995 4.14029 89.8041 3.87795C89.7246 4.15619 89.6372 4.43443 89.5418 4.71267C89.4464 4.99091 89.3549 5.26121 89.2675 5.52355C89.18 5.77794 89.0966 6.00848 89.0171 6.21517L86.5129 12.726H93.0237ZM107.095 20L100.691 3.9018H100.632C100.648 4.19594 100.659 4.50598 100.667 4.83192C100.683 5.14991 100.695 5.4838 100.703 5.83359C100.711 6.18337 100.715 6.54906 100.715 6.93065V20H99.5465V2.56625H101.407L107.584 18.0921H107.655L113.88 2.56625H115.692V20H114.488V6.78755C114.488 6.47751 114.492 6.15952 114.5 5.83359C114.508 5.50765 114.516 5.18568 114.524 4.86769C114.54 4.54176 114.556 4.22774 114.571 3.92565H114.5L108.073 20H107.095ZM120.629 20V2.56625H121.857V20H120.629ZM126.782 20V2.56625H128.01V18.8791H136.31V20H126.782ZM143.298 12.0821L148.39 2.56625H149.737L143.93 13.2626V20H142.702V13.358L136.847 2.56625H138.206L143.298 12.0821Z" fill="white"></path><path d="M24.6938 42.0115C24.6938 45.9532 23.7056 49.0172 21.7293 51.2033C19.7639 53.3895 16.976 54.4826 13.3655 54.4826C9.71081 54.4826 6.9008 53.4006 4.93545 51.2365C2.98115 49.0613 2.00399 45.9753 2.00399 41.9783C2.00399 37.9814 2.98667 34.9119 4.95202 32.7699C6.92841 30.6279 9.74393 29.5569 13.3986 29.5569C16.9981 29.5569 19.7805 30.6445 21.7458 32.8196C23.7112 34.9947 24.6938 38.0587 24.6938 42.0115ZM6.21072 42.0115C6.21072 44.9926 6.81247 47.2561 8.01597 48.8019C9.21947 50.3366 11.0026 51.104 13.3655 51.104C15.7173 51.104 17.4894 50.3421 18.6819 48.8184C19.8854 47.2947 20.4871 45.0257 20.4871 42.0115C20.4871 39.0414 19.8909 36.7889 18.6984 35.2542C17.517 33.7195 15.7504 32.9521 13.3986 32.9521C11.0247 32.9521 9.23052 33.7195 8.01597 35.2542C6.81247 36.7889 6.21072 39.0414 6.21072 42.0115ZM50.0667 54.1514H45.2141L33.306 34.8567H33.1735L33.2564 35.9332C33.4109 37.9869 33.4882 39.8639 33.4882 41.5643V54.1514H29.8943V29.9378H34.6972L46.5721 49.1331H46.6715C46.6494 48.8792 46.6053 47.9572 46.539 46.3673C46.4728 44.7663 46.4396 43.5186 46.4396 42.6243V29.9378H50.0667V54.1514ZM64.8234 54.1514H60.8651V33.333H53.7435V29.9378H71.945V33.333H64.8234V54.1514ZM90.6931 54.1514L88.2751 47.4272H79.017L76.6486 54.1514H72.475L81.5344 29.8385H85.8405L94.8999 54.1514H90.6931ZM87.2317 44.0155L84.9627 37.4238C84.7971 36.9822 84.5652 36.2866 84.2671 35.337C83.98 34.3875 83.7813 33.6919 83.6709 33.2502C83.3728 34.6083 82.9366 36.0933 82.3625 37.7054L80.1763 44.0155H87.2317ZM102.055 41.1999H104.804C106.648 41.1999 107.984 40.8577 108.812 40.1731C109.64 39.4885 110.054 38.4727 110.054 37.1257C110.054 35.7566 109.607 34.7739 108.713 34.1777C107.818 33.5815 106.471 33.2833 104.671 33.2833H102.055V41.1999ZM102.055 44.4792V54.1514H98.0963V29.9378H104.936C108.061 29.9378 110.374 30.523 111.876 31.6934C113.377 32.8638 114.128 34.6304 114.128 36.9932C114.128 40.0075 112.56 42.155 109.425 43.4358L116.265 54.1514H111.76L105.963 44.4792H102.055ZM119.792 54.1514V29.9378H123.751V54.1514H119.792ZM151.658 42.0115C151.658 45.9532 150.669 49.0172 148.693 51.2033C146.728 53.3895 143.94 54.4826 140.329 54.4826C136.675 54.4826 133.865 53.4006 131.899 51.2365C129.945 49.0613 128.968 45.9753 128.968 41.9783C128.968 37.9814 129.95 34.9119 131.916 32.7699C133.892 30.6279 136.708 29.5569 140.362 29.5569C143.962 29.5569 146.744 30.6445 148.71 32.8196C150.675 34.9947 151.658 38.0587 151.658 42.0115ZM133.174 42.0115C133.174 44.9926 133.776 47.2561 134.98 48.8019C136.183 50.3366 137.966 51.104 140.329 51.104C142.681 51.104 144.453 50.3421 145.646 48.8184C146.849 47.2947 147.451 45.0257 147.451 42.0115C147.451 39.0414 146.855 36.7889 145.662 35.2542C144.481 33.7195 142.714 32.9521 140.362 32.9521C137.988 32.9521 136.194 33.7195 134.98 35.2542C133.776 36.7889 133.174 39.0414 133.174 42.0115Z" fill="white"></path></svg>