<svg xmlns="http://www.w3.org/2000/svg" width="152" height="56" viewBox="0 0 152 56" fill="none"><path d="M10.1359 20L3.637 3.9018H3.5416C3.6052 4.88757 3.637 5.89718 3.637 6.93065V20H2.46839V2.56625H4.35248L10.5294 17.9013H10.601L16.7779 2.56625H18.6143V20H17.3861V6.78755C17.3861 5.86538 17.4338 4.91142 17.5291 3.92565H17.4338L10.911 20H10.1359ZM36.37 2.56625V13.8469C36.37 15.8502 35.7897 17.4163 34.629 18.5452C33.4684 19.6741 31.8506 20.2385 29.7757 20.2385C27.7565 20.2385 26.1785 19.6741 25.0416 18.5452C23.9128 17.4084 23.3483 15.8264 23.3483 13.7992V2.56625H24.5766V13.8469C24.5766 15.5243 25.0416 16.832 25.9718 17.7701C26.9019 18.7002 28.2176 19.1653 29.9188 19.1653C31.5803 19.1653 32.8681 18.7082 33.7824 17.794C34.6966 16.8718 35.1537 15.5959 35.1537 13.9662V2.56625H36.37ZM41.1279 20V2.56625H42.3442V18.8552H50.6557V20H41.1279ZM58.2159 20H56.9876V3.71101H51.3234V2.56625H63.88V3.71101H58.2159V20ZM66.4796 20V2.56625H67.6959V20H66.4796ZM73.849 20H72.6327V2.56625H82.1843V3.68716H73.849V11.0804H81.7192V12.2132H73.849V20ZM93.2861 13.8469H86.2029L83.7703 20H82.4228L89.4344 2.4947H90.2095L97.0781 20H95.7068L93.2861 13.8469ZM86.6441 12.7498H92.8806L90.5076 6.46559C90.3089 5.97271 90.0704 5.28903 89.7922 4.41456C89.5775 5.17773 89.343 5.86936 89.0886 6.48944L86.6441 12.7498ZM107.226 20L100.727 3.9018H100.632C100.695 4.88757 100.727 5.89718 100.727 6.93065V20H99.5584V2.56625H101.442L107.619 17.9013H107.691L113.868 2.56625H115.704V20H114.476V6.78755C114.476 5.86538 114.524 4.91142 114.619 3.92565H114.524L108.001 20H107.226ZM120.641 20V2.56625H121.857V20H120.641ZM126.794 20V2.56625H128.01V18.8552H136.322V20H126.794ZM143.346 12.1059L148.449 2.56625H149.761L143.954 13.2626V20H142.702V13.358L136.87 2.56625H138.266L143.346 12.1059Z" fill="black"></path><path d="M24.6938 42.0115C24.6938 45.9532 23.7056 49.0172 21.7293 51.2033C19.7639 53.3895 16.976 54.4826 13.3655 54.4826C9.71081 54.4826 6.9008 53.4006 4.93545 51.2365C2.98115 49.0613 2.00399 45.9753 2.00399 41.9783C2.00399 37.9814 2.98667 34.9119 4.95202 32.7699C6.92841 30.6279 9.74393 29.5569 13.3986 29.5569C16.9981 29.5569 19.7805 30.6445 21.7458 32.8196C23.7112 34.9947 24.6938 38.0587 24.6938 42.0115ZM6.21072 42.0115C6.21072 44.9926 6.81247 47.2561 8.01597 48.8019C9.21947 50.3366 11.0026 51.104 13.3655 51.104C15.7173 51.104 17.4894 50.3421 18.6819 48.8184C19.8854 47.2947 20.4871 45.0257 20.4871 42.0115C20.4871 39.0414 19.8909 36.7889 18.6984 35.2542C17.517 33.7195 15.7504 32.9521 13.3986 32.9521C11.0247 32.9521 9.23052 33.7195 8.01597 35.2542C6.81247 36.7889 6.21072 39.0414 6.21072 42.0115ZM50.0667 54.1514H45.2141L33.306 34.8567H33.1735L33.2564 35.9332C33.4109 37.9869 33.4882 39.8639 33.4882 41.5643V54.1514H29.8943V29.9378H34.6972L46.5721 49.1331H46.6715C46.6494 48.8792 46.6053 47.9572 46.539 46.3673C46.4728 44.7663 46.4396 43.5186 46.4396 42.6243V29.9378H50.0667V54.1514ZM64.8234 54.1514H60.8651V33.333H53.7435V29.9378H71.945V33.333H64.8234V54.1514ZM90.6931 54.1514L88.2751 47.4272H79.017L76.6486 54.1514H72.475L81.5344 29.8385H85.8405L94.8999 54.1514H90.6931ZM87.2317 44.0155L84.9627 37.4238C84.7971 36.9822 84.5652 36.2866 84.2671 35.337C83.98 34.3875 83.7813 33.6919 83.6709 33.2502C83.3728 34.6083 82.9366 36.0933 82.3625 37.7054L80.1763 44.0155H87.2317ZM102.055 41.1999H104.804C106.648 41.1999 107.984 40.8577 108.812 40.1731C109.64 39.4885 110.054 38.4727 110.054 37.1257C110.054 35.7566 109.607 34.7739 108.713 34.1777C107.818 33.5815 106.471 33.2833 104.671 33.2833H102.055V41.1999ZM102.055 44.4792V54.1514H98.0963V29.9378H104.936C108.061 29.9378 110.374 30.523 111.876 31.6934C113.377 32.8638 114.128 34.6304 114.128 36.9932C114.128 40.0075 112.56 42.155 109.425 43.4358L116.265 54.1514H111.76L105.963 44.4792H102.055ZM119.792 54.1514V29.9378H123.751V54.1514H119.792ZM151.658 42.0115C151.658 45.9532 150.669 49.0172 148.693 51.2033C146.728 53.3895 143.94 54.4826 140.329 54.4826C136.675 54.4826 133.865 53.4006 131.899 51.2365C129.945 49.0613 128.968 45.9753 128.968 41.9783C128.968 37.9814 129.95 34.9119 131.916 32.7699C133.892 30.6279 136.708 29.5569 140.362 29.5569C143.962 29.5569 146.744 30.6445 148.71 32.8196C150.675 34.9947 151.658 38.0587 151.658 42.0115ZM133.174 42.0115C133.174 44.9926 133.776 47.2561 134.98 48.8019C136.183 50.3366 137.966 51.104 140.329 51.104C142.681 51.104 144.453 50.3421 145.646 48.8184C146.849 47.2947 147.451 45.0257 147.451 42.0115C147.451 39.0414 146.855 36.7889 145.662 35.2542C144.481 33.7195 142.714 32.9521 140.362 32.9521C137.988 32.9521 136.194 33.7195 134.98 35.2542C133.776 36.7889 133.174 39.0414 133.174 42.0115Z" fill="black"></path></svg>